<svg xmlns="http://www.w3.org/2000/svg" viewBox="0 0 128 128" width="128" height="128">
  <defs>
    <!-- Gradient definitions -->
    <linearGradient id="bgGradient" x1="0%" y1="0%" x2="100%" y2="100%">
      <stop offset="0%" style="stop-color:#6366F1;stop-opacity:1"/>
      <stop offset="100%" style="stop-color:#3B82F6;stop-opacity:1"/>
    </linearGradient>
    <linearGradient id="cardGradient" x1="0%" y1="0%" x2="100%" y2="100%">
      <stop offset="0%" style="stop-color:#FFFFFF;stop-opacity:1"/>
      <stop offset="100%" style="stop-color:#F1F5F9;stop-opacity:1"/>
    </linearGradient>
    <linearGradient id="accentGradient" x1="0%" y1="0%" x2="100%" y2="100%">
      <stop offset="0%" style="stop-color:#EC4899;stop-opacity:1"/>
      <stop offset="100%" style="stop-color:#F59E0B;stop-opacity:1"/>
    </linearGradient>
    <!-- Drop shadow filter -->
    <filter id="dropShadow" x="-50%" y="-50%" width="200%" height="200%">
      <feGaussianBlur in="SourceAlpha" stdDeviation="3"/>
      <feOffset dx="2" dy="4" result="offset"/>
      <feFlood flood-color="#000000" flood-opacity="0.15"/>
      <feComposite in2="offset" operator="in"/>
      <feMerge>
        <feMergeNode/>
        <feMergeNode in="SourceGraphic"/>
      </feMerge>
    </filter>
  </defs>

  <!-- Main background -->
  <rect x="8" y="8" width="112" height="112" rx="24" ry="24" fill="url(#bgGradient)"/>

  <!-- Bottom card -->
  <rect x="29" y="45" width="50" height="65" rx="8" ry="8" fill="#E2E8F0" opacity="0.6" transform="rotate(-8 54 77.5)"/>

  <!-- Middle card -->
  <rect x="34" y="35" width="50" height="65" rx="8" ry="8" fill="#CBD5E1" opacity="0.8" transform="rotate(-3 59 67.5)" filter="url(#dropShadow)"/>

  <!-- Top card -->
  <rect x="39" y="25" width="50" height="65" rx="8" ry="8" fill="url(#cardGradient)" transform="rotate(2 64 57.5)" filter="url(#dropShadow)"/>

  <!-- Clip -->
  <circle cx="64" cy="30" r="8" fill="url(#accentGradient)" filter="url(#dropShadow)"/>
  <circle cx="64" cy="30" r="4" fill="#FFFFFF"/>

  <!-- Text lines -->
  <rect x="49" y="40" width="20" height="2" rx="1" fill="#6366F1" transform="rotate(2 59 41)" opacity="0.8"/>
  <rect x="49" y="47" width="16" height="2" rx="1" fill="#8B5CF6" transform="rotate(2 57 48)" opacity="0.7"/>
  <rect x="49" y="54" width="18" height="2" rx="1" fill="#EC4899" transform="rotate(2 58 55)" opacity="0.6"/>

  <!-- Particles -->
  <circle cx="89" cy="35" r="2" fill="#F59E0B" opacity="0.7"/>
  <circle cx="96" cy="50" r="1.5" fill="#10B981" opacity="0.6"/>
  <circle cx="92" cy="65" r="1" fill="#EF4444" opacity="0.5"/>
  <circle cx="29" cy="40" r="1.5" fill="#8B5CF6" opacity="0.4"/>

  <!-- Highlight -->
  <rect x="39" y="25" width="50" height="12" rx="8" ry="8" fill="url(#cardGradient)" transform="rotate(2 64 31)" opacity="0.3"/>
</svg>
